<?xml version="1.0" encoding="UTF-8"?> <!-- Generator: Adobe Illustrator 23.1.1, SVG Export Plug-In . SVG Version: 6.00 Build 0) --> <svg xmlns="http://www.w3.org/2000/svg" xmlns:xlink="http://www.w3.org/1999/xlink" id="Layer_1" x="0px" y="0px" viewBox="0 0 490.93 90.72" style="enable-background:new 0 0 490.93 90.72;" xml:space="preserve"> <g> <path d="M475.95,62.22c-0.04-0.25-0.08-0.59-0.23-0.85c-1.4-2.73-4.26-6.13-7.26-8.44c-0.07-0.05-0.16-0.05-0.31,0.02 c-0.01-0.33-0.51-0.55-0.72-0.74c-0.01,0.03,0.03,0.1,0.08,0.21c-0.57,0.27-0.76-0.24-1.08-0.38c-0.14-0.04-0.25-0.05-0.36,0 c-0.54-0.29-1.26-0.55-1.86-0.54c-0.55-0.06-1.15-0.07-1.64-0.11c-0.45,0.18-1.09,0.31-1.51,0.41c-0.11,0.06-0.25-0.05-0.34-0.08 c-0.48,0.29-1.02,0.48-1.55,0.91c-0.38,0.33-0.79,0.68-1.04,1.1c-0.1,0.21-0.18,0.57-0.36,0.75c-0.18,0.27-0.34,0.58-0.37,0.69 c-0.07,0.22,0.02,0.58-0.01,0.69c-0.06,0.19-0.49,0.59-0.55,0.78c-0.55,1.71,3.74,6.53,4.88,7.26c0.29,0.21,0.47,0.39,0.51,0.55 c0.59,0.4,1.17,0.92,1.74,1.31c0.18,0.18,0.47,0.21,0.58,0.34c0.5,0.4,1.18,0.8,1.56,1.01c0.94,0.42,1.86,0.75,1.96,0.78 c0.19,0.06,1.15,0.34,1.73,0.41c0.15,0.03,0.3,0.04,0.46,0.05c0.05,0.48,0.27,1.12,0.36,1.4c-0.11,0.06-0.18-0.09-0.23,0.05 c-0.05,0.16-0.09,0.27-0.07,0.31c0.16,0.14,0.25,0.32,0.28,0.54c0.08,0.5,0.09,1.02,0.25,1.55c0.05,0.14,0.2,0.31,0.19,0.42 c0.05,0.59,0.19,1.29,0.19,1.74c0.04,0.7-0.05,1.54-0.01,2.18l-0.16,0.49c-0.07,0.22-0.18,0.18-0.29,0.24 c0.08,0.03,0.2,0.03,0.14,0.22c-0.21,0.65-2.41,0.6-2.52,0.57c-0.2-0.03-0.44-0.11-0.63-0.17c-0.14-0.04-0.32,0.05-0.5-0.01 c-0.19-0.06-0.29-0.21-0.43-0.26c-0.9-0.29-1.97-0.96-2.87-1.49c-0.38-0.21-0.78-0.55-1.11-0.75c-0.73-0.62-1.51-1.08-2.17-1.63 c-0.63-0.56-1.09-1.28-1.72-1.93c-0.36-0.36-0.74-0.87-1.07-1.24c-0.11-0.04-1.21-1.74-1.09-2.09c0.01-0.03,0.04-0.02,0.04-0.05 l0.01-0.03l0.05,0.02l0.35,0.11c0.16,0.05,1.09,0.89,1.7,1.32c0.18-0.18,0.56-0.33,0.7-0.4c0.06-0.1,0.03-0.2,0.14-0.25 c0.11,0.03,0.11,0.12,0.24,0.08c-0.03-0.28,0.15-0.46,0.19-0.6c0.04-0.14-0.23-0.31-0.24-0.56c-0.26-0.32-0.5-0.67-0.81-0.92 c-0.19-0.15-0.47-0.3-0.6-0.37c-0.27-0.18-0.13-0.34-0.59-0.49c-0.19-0.06-0.91-0.26-1.41-0.18c-0.5,0.08-0.79,0.4-1.14,0.74 c-0.23,0.26-0.59,0.35-0.69,0.56c-0.15,0.19-0.47,0.72-0.51,0.85c-0.06,0.19,0.06-0.01,0,0.18c-0.06,0.19-0.27,0.18-0.33,0.37 c-0.04,0.14,0.1,0.45,0.16,0.62c0.18,1.4,2.48,4.39,3.76,5.73c0.19,0.15,0.51,0.37,0.69,0.55c0.39,0.36,0.98,1.06,1.27,1.28 c1.44,1.12,3.49,2.47,4.98,2.95c0.19,0.06,0.89,0.11,1.08,0.26c0.83,0.03,1.8,0.16,3.23-0.19c0.59-0.08,1.08-0.28,1.48-0.39 c0.32-0.08,2.3-1.3,2.51-1.95c0.06-0.19-0.09-0.09-0.03-0.28c0.04-0.11,0.33-0.64,0.39-0.83c0.06-0.19-0.06-0.08-0.15-0.2 c0.15-0.1,0.05-0.34,0.09-0.48c0.03-0.08,0.04-1.15,0.08-1.44c-0.07-0.05-0.13-0.07-0.2-0.21c0.13-0.05,0.07,0.05,0.13-0.14 c0.06-0.19-0.01-0.15-0.07-0.26c0.04-0.11-0.1-0.06-0.18-0.09c-0.3-0.93-0.6-1.96-0.76-2.85c-0.18-0.18-0.28-0.33-0.32-0.49 c-0.12-0.37-0.33-0.94-0.5-1.24c-0.16-0.22-0.3-0.53-0.42-0.85c0.24,0,0.48-0.01,0.7-0.01c0.42-0.1,0.96-0.2,1.39-0.33 c0.68-0.26,1.27-0.58,1.76-0.9c0.25-0.13,0.35-0.43,0.47-0.54c0.26-0.16,0.46-0.3,0.5-0.44l0.33-1.03 c0.31-0.98,0.31-1.07-0.09-2.42C476.19,62.48,476,62.33,475.95,62.22z M470.67,70.35l-0.09-0.3l0.1-0.03l0.07,0.26L470.67,70.35z M470.92,71.06l-0.14-0.13l0.09-0.09l0.16,0.17L470.92,71.06z M474.04,66.19c-0.54,0.46-3.07,0.06-3.81-0.18 c-0.13-0.04-0.58-0.25-0.79-0.34c-0.54-0.26-1.54-0.71-2.15-1.14c-0.67-0.43-1.41-0.75-2.06-1.23c-0.29-0.21-0.53-0.59-0.84-0.84 c-0.28-0.24-0.83-0.57-1.18-0.89c-0.36-0.36-0.74-0.69-1.21-1.08l-0.24-0.08c-0.2-0.21-0.58-0.61-0.52-0.8 c0.04-0.14,0.12,0.01,0.16-0.13c0.06-0.19-0.16-0.14-0.1-0.33c0.04-0.14,0.07,0.05,0.12-0.08c0.06-0.19-0.12-0.37-0.28-0.54 c-0.05-0.13,0.07-0.13,0.19-0.21c-0.07-0.14-0.22-0.16-0.26-0.29c-0.15-0.56-0.63-1.01-0.83-1.52c0-0.09-0.02-0.31-0.07-0.53 c-0.39-1.11-0.6-1.48-0.38-2.16c0.24-0.76,2.28-0.76,2.36-0.74c0.66,0.09,1.54,0.25,2.11,0.44c0.14-0.07,0.21-0.11,0.22-0.14 c0.3,0.37,1.26,0.83,1.67,1.05c1.38,1.01,2.6,2.33,3.75,3.51c0.07,0.05,0.17,0.03,0.25,0.05c0.01,0.24-0.02,0.53,0.16,0.62 c0.07,0.14,0.35,0.2,0.46,0.33c0.17,0.21,0.23,0.4,0.39,0.66c0.04,0.16,0.35,0.2,0.51,0.46C472.68,61.68,474.6,64.73,474.04,66.19z M485.87,34.99c-0.11,0.06-0.17,0.06-0.19,0.03l0.09-0.27c0.06-0.19-0.31-0.25-0.41-0.4c-0.3,0.11-0.54,0.19-0.68,0.17 c-0.31,0.23-0.57,0.57-0.95,0.71c-0.4,0.11-1.07,0.16-1.64-0.02c-0.19-0.06,0.02-0.14-0.17-0.21l-1.63-0.52 c-0.16-0.05-1.81-0.97-2.78-1.43c-0.82-0.42-1.41-0.72-2.34-1.29c-0.38-0.03-0.84-0.54-1.22-0.75c-1.04-0.48-3.06-2.03-4.12-2.37 c-0.19-0.06-0.38-0.12-0.5-0.13c-0.39,0.2-1.42,0.59-1.46,0.73c-0.06,0.19-0.04,0.5-0.18,0.66c0.03,0.01,0.13-0.05,0.07,0.14 c-0.04,0.14-0.13-0.07-0.17,0.06c-0.06,0.19,0.08,0.32-0.04,0.41c0.26,0.32,0.57,0.57,0.82,0.8c0.7,0.52,1.63,1.36,1.94,1.61 c0.29,0.3,0.76,1.17,1.19,1.22c0.08,0.5,1.37,1.61,1.84,2.18c0.52,0.53,1.01,1.22,1.4,1.8c0.05,0.14,0.27,0.18,0.26,0.2 c0.48,0.73,0.96,1.48,1.5,2.13c1.21,1.35,1.99,3.04,2.84,4.39c-0.03,0.08-0.04,0.14-0.03,0.17c0.3,0.55,0.57,1.47,0.44,1.91 c-0.13,0.41-0.41,0.26-0.71,0.16c-0.14-0.04-1.76-0.68-2.58-1.1c-0.59-0.4-1.21-0.99-1.71-1.39l-0.63-0.29l-2.05-1.62 c-0.22-0.16-0.66-0.27-0.84-0.45c-0.96-0.82-1.97-1.68-3.01-2.46c-0.1-0.06-0.15,0.01-0.25-0.05c0.24-0.01-2.13-1.67-2.7-1.86 c-0.22-0.07-0.83-0.12-1.01,0.43c-0.06,0.19,0.02,0.13-0.02,0.26c-0.06,0.19-0.12-0.01-0.18,0.18c-0.04,0.11,0.13,0.25,0.09,0.39 c-0.04,0.14-0.09,0-0.15,0.19c-0.03,0.08-0.04,0.11-0.07,0.13c-0.01,0.03-0.01,0.03-0.04,0.02c0.22,0.16,0.48,0.18,0.67,0.34 c0.21,0.1,0.31,0.34,0.36,0.47c0.28,0.33,0.79,0.52,0.82,0.89l4.18,3.59l4.36,3.02l0.19,0.06c0.3,0.19,0.59,0.4,0.8,0.5 c0.66,0.36,1.94,0.86,2.05,0.9c0.19,0.06,0.39,0.1,0.47,0.12c0.14,0.02,0.29,0.03,0.42-0.01c0.24-0.01,0.46,0.06,0.58,0.07 c0.18,0,0.34-0.04,0.5-0.08c0.22-0.02,0.48-0.09,0.82-0.22c0.31-0.14,0.5-0.26,0.53-0.34c0.04-0.14-0.09,0-0.04-0.13 c0.09-0.27,1.03-0.51,1.16-0.91c0.13-0.41,0.5-1.46,0.36-1.86c0.05-0.07,0.07-0.13,0.06-0.19c-0.43-3.4-3.82-6.83-5.88-9.76 c0.11-0.06,0.06-0.01,0.18,0l4.18,1.34c0.19,0.06,0.45,0,0.65,0.03c0.02,0.04,0.1,0.06,0.18,0.09c0.74,0.03,1.49,0.12,1.95-0.09 c0.02,0.04,0.04,0.07,0.07,0.08l0.08,0.03c-0.08-0.12,0.11-0.15,0.16-0.22c0.18-0.09,0.58-0.23,0.79-0.4 c0.2-0.15,0.45-0.37,0.74-0.63c0.29-0.26,0.44-0.43,0.46-0.48c0.06-0.19,0.13-0.05,0.2-0.24C485.96,35.26,485.83,35.1,485.87,34.99 z M490.91,19.04c-0.96-0.1-2.24,0.36-3.39,0.95c-1.15,0.59-2.16,1.22-3.07,1.92c-0.27,0.18-0.62,0.61-0.88,0.77 c-0.9,0.67-1.75,1.26-2.36,1.76c-0.16,0.13-1.73,1.57-2.09,1.46c-0.3-0.1-0.38-0.6-0.42-0.82l-1.25-6.9 c-0.22-0.7-0.38-1.32-0.61-3.31c0.01-0.3,0.15-1.96-0.39-2.13c-0.13-0.04-0.5-0.01-0.59-0.01c-0.32-0.01-1.36,0.7-1.41,0.84 c-0.06,0.19,0.09,0.18,0.03,0.37c-0.06,0.19-0.36,0.45-0.4,0.59c-0.1,0.33,0.16,0.89,0.18,1.11c0.05,0.5,0.15,1.04,0.28,1.65 c0.13,0.61,0.3,1.5,0.47,2.73c0.11,0.87,0.25,1.82,0.43,2.48c0.05,0.41,0.17,0.68,0.33,0.85l-0.22,0.14 c-0.61-0.44-1.08-0.74-1.41-0.93c-0.33-0.19-0.81-0.47-1.4-0.87c-0.85-0.6-1.59-1.11-2.82-1.39c-0.22-0.07-0.53-0.32-0.66-0.36 c-0.19-0.06-1.01-0.02-1.49,0.06c-0.1,0.3-0.49,0.59-0.55,0.78c-0.04,0.11,0.12,0.28-0.1,0.6c0.11-0.06,0.16-0.04,0.13,0.07 l-0.12,0.38c0.53,0.32,1.48,0.71,1.91,1.12c0.08,0.03,0.22-0.11,0.3,0.01c0.28,0.33,1.06,0.7,1.48,0.98 c1.05,0.73,1.99,1.27,2.81,1.68c0.81,0.38,1.7,0.96,2.63,1.77c0.46,0.36,0.27,1.2,0.38,1.62c0.24,0.08,0.6,0.01,0.75,0.18 c0.13-0.41,0.61-0.04,0.69-0.02c0.12-0.08,0.31-0.23,0.42-0.19c0.46,0.15,3.51,2.6,5.68,3.29c0.54,0.17,1.71,0.55,2.11,0.23 c0.14,0.04,0.32,0.01,0.35,0.02c0.4-0.11,1-0.4,1.18-0.58c0.25-0.31,0.32-0.71,0.5-0.89c-0.17-0.21-0.44-0.41-0.63-0.47 c-0.19-0.06-0.46,0.12-0.57,0.2c-0.22,0.02-0.4-0.07-0.53-0.11c-2.14-0.69-3.86-2.05-5.36-2.98c-0.05-0.04-0.05-0.11-0.04-0.16 c-0.16-0.14-0.43-0.35-0.48-0.45c2.21-1.95,4.72-4.05,7.09-5.21c0.87-0.56,1.75-0.79,2.53-1.25c0.15-0.1,0.25-0.52,0.32-0.71 c0.06-0.19,0.24-0.28,0.28-0.39C490.98,19.3,490.87,19.17,490.91,19.04z M468.05,83.07c-0.18-0.1-0.33-0.28-0.64-0.38 c-0.27-0.09-0.81,0.16-1.27,0.4c-0.01-0.09-0.12-0.16-0.31-0.23c0.04,0.39-0.65,0.97-1.03,0.72c0.05,0.48,0.6,1.04,0.53,1.23 c-0.1,0.31-0.12-0.04-0.2,0.23c-0.09,0.27,0.59,1.2,0.83,1.62c0.15,0.18,0.37,0.29,0.64,0.37c0.77,0.25,1.92,0.32,2.32-0.9 c0.09-0.27,0.16-1,0.07-1.41C468.81,84.11,468.26,83.6,468.05,83.07z M477.58,52.16c-0.18-0.1-0.33-0.28-0.64-0.37 c-0.27-0.09-0.81,0.16-1.27,0.39c-0.01-0.09-0.12-0.16-0.31-0.23c0.04,0.39-0.65,0.97-1.03,0.72c0.06,0.48,0.6,1.04,0.53,1.23 c-0.1,0.31-0.11-0.04-0.2,0.23c-0.09,0.27,0.59,1.2,0.83,1.62c0.16,0.18,0.37,0.29,0.64,0.38c0.76,0.25,1.92,0.32,2.32-0.9 c0.09-0.27,0.15-1.01,0.07-1.41C478.34,53.2,477.79,52.69,477.58,52.16z"></path> </g> <path d="M305.85,29.1c-2.36-1.11-5.17-1.38-8.44-0.78c-1.62,1.16-3.8,2.06-5.78,3.71c-1.97,1.65-2.99,2.5-4.62,3.65 c-0.59-1.57-0.98-2.41-0.97-5.1c0.01-4.54-2.2-8.38-2.07-11.31c0.13-2.94-0.11-5.5,0.05-8.11c0.15-2.62,0.03-4.67-0.35-6.16 c-0.54-0.82-1.11-1.37-1.75-1.66c-0.64-0.29-1.34-0.46-2.1-0.5c-0.76-0.04-1.57-0.03-2.41,0.03c-0.76,0.05-1.47,0.01-2.15-0.14 c-0.35,0.31-0.83,0.65-1.42,1.02c-0.59,0.37-1.15,0.79-1.69,1.25c-0.53,0.46-0.95,0.99-1.24,1.58c-0.3,0.59-0.36,1.31-0.21,2.15 c-1.01,0.45-1.59,1.01-1.73,1.68c-0.15,0.68-0.07,1.43,0.22,2.27c0.29,0.83,0.61,1.69,0.95,2.56c0.34,0.88,0.5,1.7,0.45,2.46 c-0.43,4.86,2.08,12.33,2.82,17.68c0.75,5.35,0.91,10.65,1.64,16c0.74,5.35,1.24,10.58,1.49,15.68c0.25,5.1,0.37,9.14-0.85,13.49 c1.15,1.62,2.84,3.36,5.1,3.73c2.25,0.36,4.3,0.11,6.13-0.78c1.1-0.55,2.82-1.05,3.61-2.1c0.78-1.05,2.04-1.61,2.73-2.75 c0.68-1.13,1.23-1.59,2.06-2.55c0.83-0.96,1.86-2.04,3.16-2.31c2.69-2.27,5.01-5.83,7.24-8.68c2.22-2.86,3.37-5.54,4.62-8.75 c1.25-3.21,1.66-6.9,1.89-10.47c0.24-3.57-0.24-7.16-1.44-10.78C309.85,32.22,308.2,30.22,305.85,29.1z M299.06,54.8 c-0.62,2.03-1.61,3.88-2.97,5.53c-1.36,1.65-3.11,4.61-4.95,5.5c-0.34-2.25-0.38-6.15-0.43-8.32c-0.06-2.18,0.09-4.29,0.42-6.36 c0.34-2.06,0.96-4,1.88-5.82c0.92-1.82,1.98-2.54,3.48-4.06c0.45,0.92,0.92,1.6,1.34,2.79c0.42,1.21,0.87,1.92,1.15,3.28 c0.29,1.35,0.45,2.67,0.49,3.95C299.49,52.56,299.37,53.74,299.06,54.8z"></path> <path d="M210.77,55.67c-1.39-3.63-2.31-7.15-2.79-10.57c-0.05-0.36-0.1-0.73-0.15-1.1c3.29-4.19,15.49-19.88,17.49-24.69 c2.3-5.58-6.78-10.29-6.78-10.29l0,0c-0.76-0.67-1.51-1.15-2.25-1.41c-1.3-0.42-2.54-0.42-3.72,0.03c-1.17,0.45-2.33,1.17-3.46,2.17 c-1.11,1-2.17,2.12-3.19,3.34c-1.01,1.23-2.02,2.42-3.04,3.56c-1.02,1.13-1.96,2.04-2.84,2.71c-1.63,2.54-3.07,5.29-4.34,8.24 c-1.27,2.96-2.24,5.95-2.91,8.97c-0.67,3.02-0.92,6.05-0.74,9.06c0.02,0.34,0.08,0.68,0.11,1.02c-1.44,1.41-3.55,3.55-6.01,6.22 c-3.99,4.33-8.81,9.26-9.23,9.75c-0.88,1.02-2.28,1.48-3.05,2.59c-0.78,1.12-1.71,2.03-2.78,2.7c-0.58,0.49-1.19,0.68-1.83,0.58 c-0.63-0.09-1.19-0.34-1.67-0.73c-0.49-0.38-0.89-0.9-1.17-1.53c-0.3-0.63-0.44-1.29-0.44-1.97c-1.17-2.34-1.9-4.41-2.19-6.21 c-0.29-1.8-0.61-3.24-0.22-4.79c2.24-0.88,4.85-2.38,7.08-4.04c2.24-1.65,4.17-3.62,5.77-5.91c1.61-2.29,2.73-4.82,3.36-7.59 c0.63-2.78,0.41-5.72-0.66-8.84c-0.88-1.75-1.87-2.95-2.99-3.58c-1.12-0.63-2.51-1.34-4.16-2.12c-5.65-0.68-10.61,0.73-14.9,4.23 c-1.56,1.27-2.8,2.95-3.73,5.03c-0.93,2.1-1.61,4.39-2.04,6.87c-0.44,2.48-0.71,4.96-0.81,7.45c-0.1,2.48-0.1,4.75,0,6.79 c0.58,1.16,0.45,2.66,0.65,3.92c0.2,1.27,0.88,2.28,1.03,3.6c0.15,1.31,0.34,2.6,0.58,3.87c0.25,1.26,0.2,2.63,0.79,3.8 c-0.11,0.98,0.43,1.67,0.67,2.41c0.25,0.72,0.56,1.41,0.95,2.04c0.39,0.63,0.8,1.27,1.24,1.9c0,0,2.99,3.41,6.45,4.83 c3.46,1.42,10.19-1.54,10.19-1.54c2.1-1.07,4-2.43,5.7-4.09c1.29-1.26,10.83-11.85,15.85-17.73c0.83,2.28,1.73,4.47,2.74,6.58 c1.04,2.2,1.97,4.42,2.77,6.68c0.8,2.25,1.26,1.86,1.52,4.21c0.26,2.36,0.02,4.85-0.7,7.46c-0.48,0.38-0.92,0.86-1.31,1.42 c-0.39,0.57-0.79,1.11-1.23,1.63c-0.43,0.52-0.89,0.88-1.38,1.08c-0.5,0.2-1.09,0.17-1.79-0.09c-1.07,1.05-2.03,2.07-2.9,3.07 c-0.87,0.99-1.34,2.28-1.4,3.86c3.98,0.46,7.54,0.11,10.63-1.03c3.1-1.15,6.11-2.78,9.04-4.89c2.8-3.22,4.31-6.6,4.51-10.13 c0.22-3.53-0.05-4.39-0.94-7.98C213.28,62.91,212.14,59.3,210.77,55.67z M162.48,42c0.1-1.27,0.16-2.47,0.6-3.83 c0.43-1.37,0.79-2.66,1.38-3.59c0.58-0.93,1.36-1.34,2.04-1.69c0.68-0.34,1.72-0.16,2.4,0.62c0.78,0.88,1.81,2.43,1.42,3.28 c-0.53,1.15-0.62,1.68-1.24,2.08c-1.03,0.66-1.33,0.89-2.17,1.46C166.4,40.68,164.53,41.41,162.48,42z M207.13,32.47 c0.19-2.23,0.69-4.38,1.48-6.44c0.79-2.05,2.16-3.8,4.11-5.24c0.78-0.85,1.7-1.62,2.78-2.3c0.09-0.06,0.17-0.12,0.26-0.18 c1.03,3.02-5.7,12.45-8.75,16.51C207.03,34.04,207.06,33.25,207.13,32.47z"></path> <path d="M261.94,26.44c-1.63,0.11-3.03,0.15-4.2,0.13c-1.15-0.02-2.34-0.01-3.55,0.01c-1.21,0.04-2.59,0.1-4.12,0.21 c-1.45,0.09-3.28,0.31-5.48,0.65c0.85-1.9,1.64-4.08,2.41-6.55c0.76-2.46,0.71-7.32,0.24-8.64c-0.36-1.05-0.89-1.78-1.61-2.22 c-0.7-0.44-1.47-0.7-2.29-0.8c-0.83-0.09-1.68-0.15-2.56-0.2c-0.88-0.04-1.71-0.23-2.51-0.56c-2.25,1.02-3.44,5.54-3.92,7.65 c-0.5,2.12-0.78,4.34-0.87,6.67c-0.09,2.33-0.33,4.55-0.73,6.66c-0.39,2.1-1.66,3.18-3.61,4.18c-1.64,0.11-2.95,0.95-4.07,1.55 c-1.12,0.6-2.11,1.39-2.97,2.37c-0.85,0.98-1.61,2.09-2.25,3.34c-0.65,1.26-1.26,2.53-1.85,3.83c0.38,1.33,1.06,2.16,2.05,2.48 c0.99,0.32,2.08,0.42,3.29,0.29c1.2-0.13,2.43-0.3,3.66-0.53c1.24-0.23,2.23-0.9,3.03-0.66c0.43,2.1,0.68,4.82,0.71,6.81 c0.04,1.99-0.01,3.97-0.12,5.97c-0.12,1.99-0.13,3.97-0.05,5.96c0.08,1.97,0.43,3.96,1.05,5.96c1.06,1.57,1.25,3.5,2.25,5.46 c1,1.97,2.92,3.69,4.05,5.45c1.13,1.76,2.48,3.2,4.06,4.31c1.57,1.11,3.52,1.59,5.83,1.43c0.06-0.39,0.72-0.36,1.2-0.44 c0.48-0.08,0.92-0.09,1.6-0.13c0.67-0.05,1.1-0.43,1.78-0.52c0.66-0.09,1.19-0.34,1.54-0.75c0.08-0.39,0.1-0.79,0.08-1.17 c-0.03-0.38,0.14-0.74,0.5-1.05c0.26-1.96,1.75-3.28,2.62-5.03c0.84-1.68,2.03-3.17,3.25-5.08c0.45-0.61,0.63-1.16,0.56-1.64 c-0.08-0.48-0.27-0.78-0.57-0.91c-0.29-0.12-1.01-0.98-1.33-0.71c0,0-2.79-1.07-3.55-0.93c-0.75,0.13-2.99,2.3-2.99,2.3 c-1.17,0.61-2.01,0.76-3.13,1.32c-1.33-2.53-2.67-4.72-3.37-7.43c-0.72-2.71-1.23-5.49-1.56-8.32c-0.33-2.83-0.52-5.73-0.57-8.68 c-0.05-2.94-0.07-5.97-0.08-9.07c0.64-0.43,1.35-0.67,2.12-0.72c0.86-0.06,1.69-0.09,2.47-0.09c0.77,0,1.51-0.1,2.22-0.29l5.44-1.3 c0.81-0.14,1.7-0.21,2.67-0.17c0.98,0.04,1.84,0.05,2.63,0.05c0.76,0,1.29-0.2,1.55-0.61c0.26-0.4,0.58-1.17,0.94-2.31 c0.36-1.14,0.6-2.29,0.72-3.45c0.12-1.17,0-2.15-0.34-2.96C263.86,26.72,263.11,26.36,261.94,26.44z"></path> <path d="M461.02,13.19c-0.91,0.31-1.65,0.24-2.22-0.2c-0.57-0.44-1.08-0.93-1.51-1.46c-0.43-0.54-0.86-0.96-1.28-1.27 c-0.42-0.31-1.05-0.21-1.86,0.28c-0.71,0.85-1.52,1.6-2.41,2.23c-0.9,0.63-3.12-0.05-3.93,0.67c-0.81,0.72-0.21,0.11-0.88,1.01 c-0.64,0.9-1.05,1.99-1.19,3.29c1.01,2.63-1.19,19.27-1.91,22.38c-0.72,3.12-0.39,8.62-1.87,11.07c-0.91,3.07-3.12,6.21-3.93,9.33 c-0.82,3.11-0.72,3.39-2.28,6.39c-0.93-0.61-1.53-1.23-1.78-1.87c0,0-2.2-3.98-2.91-5.31c-0.71-1.33-2.36-6.23-2.36-6.23 c-0.14-2.43-0.38-4.73-0.73-6.88c-0.36-2.15-1.14-3.91-2.33-5.3c-1.19-1.38-3.31-1.89-6.34-1.5c-1.25,1.15-1.23,0.81-2.67,1.74 c-1.44,0.93-2.5,2.19-3.18,3.78c-0.04,1.57-0.37,3.1-1.01,4.6c-0.64,1.49-1.39,2.95-2.26,4.36c-0.86,1.42-1.62,5.61-2.43,7.11 c-0.83,1.51-1.4,3.04-1.71,4.62c-1.32-5.94-3.67-10.45-4.45-16.36c-0.77-5.91,1.47-13.03,1.11-18.6c-0.13-1.94-5.46-2.36-5.46-2.36 c-0.67-0.39-1.36-0.44-2.08-0.13c-1.27,0.51-2.14,1.02-2.64,1.55c-0.49,0.52-0.88,1.07-1.18,1.63c-0.31,0.56-0.64,1.19-1.04,1.9 c-0.39,0.71-1.08,1.49-2.05,2.35c-0.27,0.29-0.52,0.85-0.77,1.68c-0.01,0.05-0.02,0.1-0.03,0.15c-0.69,1.42-1.36,7.35-3.73,10.74 c-2.55,3.67-4.08,7.38-4.51,7.78c-0.92,0.85-1.76,1.78-2.52,2.8c-0.77,1.02-1.48,2.09-2.15,3.18c-0.67,1.11-1.48,2.02-2.45,2.72 c-0.52,0.5-1.08,0.72-1.68,0.67c-0.6-0.05-1.15-0.25-1.63-0.59c-0.48-0.33-0.3-0.47-0.61-1.05c-0.31-0.57-1.08-1.52-1.12-2.16 c-1.25-2.13-2.06-4.04-2.45-5.72c-0.39-1.68-0.44-3.27-0.17-4.76c2.05-0.96,4.09-2.29,6.11-3.99c2.01-1.7,3.7-3.67,5.07-5.94 c1.38-2.25,2.28-4.72,2.7-7.37c0.43-2.65,0.04-5.42-1.15-8.29c-0.94-1.6-1.96-2.66-3.05-3.19c-1.09-0.53-2.45-1.1-4.05-1.74 c-5.36-0.29-9.97,1.34-13.79,4.91c-1.4,1.29-2.46,2.95-3.21,4.98c-0.74,2.03-1.24,4.23-1.5,6.6c-0.26,2.37-0.36,4.72-0.3,7.07 c0.06,2.35,0.19,4.48,0.42,6.41c0.62,1.07,1.05,2.19,1.32,3.37c0.26,1.19,0.5,2.39,0.72,3.62c0.22,1.23,0.48,2.44,0.79,3.61 c0.3,1.18,0.77,2.3,1.39,3.37c-0.02,0.92,0.1,1.72,0.36,2.4c0.28,0.67,0.62,1.3,1.03,1.87c0.4,0.58,0.84,1.14,1.29,1.72l3.92,3.97 c0,0,2.31,0.62,4.97,0.71c2.66,0.09,6.74-2.57,6.74-2.57l0.27-0.04c1.91-1.13,3.62-2.53,5.12-4.2c1.51-1.66,2.78-3.5,3.79-5.5 c0.62-1.22,3.29-7.86,5.44-13.31c0.04,0.34,0.08,0.65,0.12,1c0.12,1.1,0.16-0.58,0.29,0.43c0.13,1.01,0.03,1.95,0.51,2.57 c0.3,5.7,1.57,11,2.99,16.16c1.44,5.15,3.2,10.17,5.32,15.07c0.54-0.11,0.96-0.01,1.24,0.3c0.29,0.31,0.58,0.64,0.87,1 c0.29,0.35,0.59,0.62,0.93,0.8c0.33,0.17,0.85,0.1,1.58-0.2c0.71-0.67,1.48-1.08,2.3-1.26c0.82-0.16,1.62-0.33,2.4-0.5 c0.78-0.17,1.53-0.47,2.24-0.91c0.72-0.45,1.3-1.22,1.71-2.34c0.26-3.32,1.04-6.39,2.36-9.2c1.33-2.81,3.15-5.57,4.33-8.56 c1.02,0.06,1.06,0.35,1.27,1.18c0.22,0.82,0.65,2.01,1.04,2.55c0.33,1.56,0.74,2.52,1.47,3.92c0.75,1.4,1.56,2.78,2.44,4.13 c0.88,1.35,2.8,3.25,3.72,4.55c0.92,1.3,2.12,2,2.9,3.36c0.85,0.43,1.7,0.63,2.51,0.6c0.82-0.04,1.66-0.16,2.48-0.37 c0.82-0.22,1.61-0.47,2.38-0.77c0.77-0.3,1.52-0.47,2.26-0.5c3.1-5.91,5.82-12.18,8.16-18.8c2.34-6.63,3.46-13.06,6.08-19.42 c0.01-2.02,0.39-3.81,1.12-5.36c0.73-1.55,3.88-12.73,4.51-14.23c0.65-1.5,1.08-4.44,1.35-6.11 C461.97,17.3,461.74,15.37,461.02,13.19z M362.36,41.05c-0.72,0.96,0.18-2.46,0.52-3.77c0.34-1.31,0.74-2.42,1.23-3.33 c0.5-0.91,1.05-1.54,1.67-1.9c0.63-0.37,1.28-0.2,1.97,0.49c0.78,0.78,2.34,2.85,1.83,3.57c-0.5,0.72-0.96,1.47-1.37,2.23 c-0.49,1.04-2.25,1.86-2.54,2.34C365.39,41.17,362.13,41.36,362.36,41.05z"></path> <path d="M348.7,68.6c-1.63-2.34-2.56-4.28-4.54-7.19c-1.59-2.32-2.19-5.73-3.71-7.66c-0.41,0.45-0.74,0.47-0.97,0.05 c-0.02-0.35-0.05-0.65-0.09-0.9c-0.05-0.25-0.47-0.27-0.2-0.49c-0.79-0.17-0.95-0.72-1.51-1.2c-0.55-0.47-1.06-1.02-1.48-1.64 c-0.43-0.62-0.8-1.28-1.12-1.98c-0.33-0.7-1.5-1.54-0.97-1.99c0.24-0.2,1.24-1.45,1.74-1.97c0.51-0.53,1.24-1.02,1.93-1.75 c0.83-0.89,1.65-2.09,2.5-3.57c0.86-1.48,1.58-3.03,2.18-4.67c0.6-1.64,0.97-3.27,1.14-4.89c0.17-1.62,0.01-3.02-0.48-4.21 c-0.54-0.69-1.23-1.28-2.08-1.77c-0.85-0.49-1.75-0.89-2.69-1.2c-0.95-0.31-1.93-0.55-2.93-0.71c-1.01-0.16-2.08-0.73-3.02-0.83 l-2.75-0.74l-1.51-0.21c-1.51-0.21-2.48-0.47-4-0.44c-1.57,0.04-3.11,0.16-4.59,0.45c-1.49,0.29-2.51,1.17-3.08,2.63 c0.8,4.4,1.25,9.15,1.38,14.26c0.11,5.11,0.19,10.33,0.21,15.66c0.02,5.33,0.12,10.66,0.29,15.98c0.16,5.32,0.83,13.05,1.72,17.73 c0.92-0.12,1.94-0.17,3.04-0.15c1.11,0.01,1.94-0.21,2.49-0.67c0.21-0.15,0.36-0.39,0.44-0.72c0.1-0.33,0.18-0.62,0.28-0.88 c0.09-0.25,0.25-0.46,0.45-0.61c0.2-0.15,0.56-0.17,1.08-0.06c0.61-0.6,0.98-1.23,1.12-1.88c0.15-0.65,0.21-1.34,0.17-2.05 c-0.05-0.79-0.16-3.73-0.31-4.54c-0.15-0.82-0.18-1.69-0.09-2.63c-0.41-0.97-0.8-2.79-0.95-4.25c-0.15-1.46-0.22-2.99-0.23-4.6 c-0.01-1.61-0.21-2.19-0.14-3.73c0.06-1.54,0.07-2.84,0.09-3.99c3.64,5.54,7.69,11.38,11.62,16.87c2.32,3.24,4.28,6.91,6.76,9.96 c1.72,2.12,3.35,3.23,5.04,4.32l2.28,0.01c0.71-0.32,1.42-0.61,2.16-0.86c0.73-0.25,1.42-0.55,2.04-0.91 c0.63-0.35,1.14-0.77,1.54-1.26c0.41-0.48,0.65-1.16,0.75-2.03c-1.96-1.9-3.82-4-5.59-6.31C352.38,72.06,350.36,70.99,348.7,68.6z M329.77,38.2c-0.74,0.22-1.5,0.42-2.27,0.6c-0.21,0.05-0.3,0.08-0.33,0.09c-0.02-0.01-0.09-0.02-0.26-0.02 c-0.64,0-0.67-2.1-0.76-2.59c-0.02-0.29-0.19-1.73-0.22-2.31c-0.03-0.57-0.23-3.66-0.22-4.3c0-0.65,0.09-1.93,0.18-2.44 c0.03-0.17,0-0.24-0.04-0.28c0.02,0,0.01,0.01,0.04,0.01c1.19,0.11,2.33,0.25,3.17,0.54c0.84,0.28,3.1,1.24,3.94,1.74 c0.84,0.49,1.67,1.47,2.04,2.38c0.3,0.73-0.53,2.7-1.04,3.26C332.73,36.28,330.51,37.98,329.77,38.2z"></path> <path d="M90.14,39.51c-1.15-2.31-2.65-4.41-4.5-6.31c-1.84-1.9-3.83-3.68-5.94-5.33c0,0-0.04-0.04-0.11-0.1 c-0.79-0.67-5.32-3.69-6.43-3.65c-1.22,0.04-2.51-0.55-3.71,0.06c-1.2,0.61-2.4,1.36-3.59,2.27c-1.2,0.9-2.35,1.56-3.46,1.97 c0,0-6.47,12.17-8.89,14.45c-2.42,2.27-4.48,4.77-4.42,5.63c0.22,3.01-0.47,5.84-0.01,8.61c0.46,2.75,1.22,5.39,2.29,7.88 c0.33,0.78,0.72,1.51,1.09,2.26c-2.32,1.6-6.29,3.84-9.43,3.3c-0.59-0.1-0.66-1.16-0.75-2.2c-0.09-1.04-0.18-2.19-0.28-3.47 c-0.1-1.28-0.45-2.16-1.06-2.64c-0.86-1.94-1.21-4.2-1.06-6.78c0.15-2.57,0.2-5.07,0.17-7.49c-0.05-2.42-0.39-4.63-1.06-6.63 c-0.67-2.01-2.2-3.41-4.6-4.21c-2.3-0.7-4.37-0.48-6.2,0.67c-1.84,1.16-3.54,2.7-5.1,4.64c-1.56,1.93-3.04,4.01-4.44,6.24 c-1.4,2.23-2.77,4.01-4.1,5.35c0.18-3.27,0.27-6.71,0.28-10.32c0.02-3.6,0.03-7.24,0.04-10.89c0.01-3.66-0.15-14.6,0.07-18.17 c0.21-3.56,0.65-6.99,1.33-10.27c-0.42-0.68-0.74-1.48-0.98-2.41c-0.24-0.93-0.89-1.28-1.97-1.04c0.03,0.7-0.06,1.1-0.25,1.2 c-0.2,0.11-0.42,0.07-0.67-0.12c-0.26-0.19-0.49-0.48-0.7-0.87c-0.21-0.39-0.37-0.72-0.48-1.02C9.73-0.12,8.6-0.01,7.83,0.47 C7.05,0.94,6.38,1.51,5.82,2.18C5.24,2.84,4.65,3.5,4.04,4.17C3.42,4.84,2.52,5.34,1.35,5.68c-0.02,4.94-0.21,9.81-0.57,14.62 c-0.37,4.81-0.39,16.97-0.6,21.81c-0.22,4.85-0.23,9.75-0.05,14.67c0.18,4.84,0.18,9.94,1.78,14.92c0.55,1.7,0.96,2.96,0.98,4.79 c0.02,1.83,0.9,3.83,0.91,5.5c0.01,1.69,0.29,3.23,0.84,4.64c0.55,1.41,0.5,2.19,2.68,2.01c1.06-0.09,2.26-0.71,3.14-0.89 c0.88-0.18,1.76-0.29,2.66-0.32c0.99-0.04,1.86-0.17,2.65-0.39c0.78-0.22,1.25-0.89,1.41-1.98c0.3-5.35,1.32-10.3,3.08-14.87 c1.76-4.56,4.69-7.72,6.4-12.34c0.78,2.54,0.47,3.66,1.45,6.19c0.98,2.54,1.52,5.19,1.62,7.94c0.42,0.68,0.47,2.2,0.65,3.08 c0.18,0.89,0.66,1.01,0.94,1.83c0.27,0.83,0.65,1.53,1.11,2.11c0.47,0.58,1.15,0.9,2.04,0.96c5.03,0.43,15.21-3.2,21.77-6.44 c1.16,1.64,2.36,3.24,3.64,4.73c1.35,1.21,2.7,2.07,4.03,2.6c1.33,0.53,2.7,0.9,4.12,1.09c1.41,0.19,2.87,0.27,4.37,0.22 c1.5-0.05,3.27-0.44,4.97-0.98c2.41-0.76,3.9-3.71,5.43-5.72c1.53-2.01,1.94-3.52,3.23-5.71c1.29-2.2,2.42-4.47,3.38-6.85 c0.96-2.37,1.63-4.85,2.02-7.45c0.84-2.99,1.13-5.83,0.86-8.49C92.01,44.3,91.3,41.82,90.14,39.51z M81.49,59.57 c-0.59,1.21-1.67,4.76-2.51,7.43c0,0-2.91,4.81-4.5,5.73c-1.59,0.93-3.2,0.78-3.2,0.78l-3.88-0.25c-0.46,0.21-1.06-0.54-1.72-0.61 c-1.93-3.15-2.28-6.15-3.2-8.05c-1-2.07-0.69-4.44-0.8-6.5c-0.12-2.3,0.63-3.4,0.84-5.62c0.21-2.2,1.21-3.88,2.56-5.93 c0.36-0.58,0.83-1.41,1.4-2.48c0.57-1.07,1.17-2.02,1.81-2.85c0.64-0.84,1.32-1.36,2.07-1.58c0.75-0.21,2.3,0.27,3.32,0.89 l1.57,0.82c2.21,1.85,3.23,1.95,4.07,4.28c0.74,2.04,1.61,3.33,2.05,5.78C81.94,54.56,82.76,56.95,81.49,59.57z"></path> <path d="M147.17,70.7l-6.55-42.72c-0.25-1.45-2.24-2.44-3.47-3.03c-3.22-1.54-6.71,0.11-6.71,0.11c-0.53,0.4-2.1,1.13-4.9,3.42 c-3.97,3.26-5.69,5.41-7.86,8.84c-2.17,3.43-3.48,4.57-5.48,8.88c-1.53,3.07-1.49,2.32-1.94,3.04c-0.41,0.65-0.44-0.81-0.44-0.81 l-0.11-2.04c-0.14-2.25-0.36-2.87-0.36-5.14c0-2.27-0.97-6.72-1.49-9.23c0,0-1.2-5.79-1.4-6.64c-0.2-0.85-0.55-2.12-1.02-2.61 c-0.53-0.57-1.14-1.02-1.61-1.57c-0.47-0.55-1-0.95-1.58-1.21c-0.59-0.24-1.41,0.07-2.46,0.95c-0.51,0.73-1,1.34-1.48,1.82 c-0.48,0.48-0.94,0.92-1.37,1.3c-0.44,0.38-0.85,0.8-1.24,1.28c-0.39,0.47-0.73,1.12-1.04,1.93c0.24,4.03,2.69,11.6,2.82,15.97 c0.12,4.38,0.22,7.79,0.58,12.2c0.36,4.41,0.91,8.75,1.64,13.02c0.73,4.28,1.85,8.22,3.38,11.84c0.47,1.25,1.13,2.05,1.96,2.43 c0.84,0.37,1.75,0.57,2.74,0.59c0.99,0.02,2.04-0.09,3.15-0.33c1.11-0.24,2.32,0.05,3.21-0.49c0.96-0.58,1.32-0.72,2.11-1.48 c0.79-0.75-0.43-7.4-0.27-9.13c0.68-7.69,1.5-8.52,3.71-12.55L127,47.1c0,0,0.77-1.66,0.86-1.13c0.09,0.54,0.51,4.67,0.51,4.67 s1.38,11.39,1.55,12.4c0.9,5.43,3.58,17.43,4.94,19.7c0.25,0.42,0.33,0.73,0.65,1.05c0.4,0.41,0.71,0.75,1.06,1.04 c0.53,0.45,0.61,0.53,1.01,0.74c0.39,0.21,0.83,0.39,1.08,0.4c2.77,0.16,4.61-0.06,6.77-0.19c0,0,2.36-0.46,3.06-0.55 c0.71-0.09,2.16-0.58,2.38-0.89c0.22-0.32,0.4-1.61,0.22-2.02C151.08,82.34,147.55,74.14,147.17,70.7z"></path> </svg> 